# xmcd CD database file
#
# Track frame offsets:
#	150
#	16950
#	31650
#	55125
#	71700
#	92325
#	112800
#	137775
#	157050
#	175388
#	212025
#	234200
#	251550
#
# Disc length: 3612 seconds
#
# Revision: 3
# Processed by: cddbd v1.4PL0 Copyright (c) Steve Scherf et al.
# Submitted via: CDex 1.50
#
DISCID=a40e1a0d
DTITLE=Scott Kirby - Scott Joplin's Ragtime
DYEAR=1989
DGENRE=Jazz
TTITLE0=Rag Time Dance
TTITLE1=Maple Leaf Rag
TTITLE2=Weeping Willow
TTITLE3=The Cascades
TTITLE4=The Easy Winners
TTITLE5=Peacherine Rag
TTITLE6=Original Rags
TTITLE7=Lily Queen
TTITLE8=Paragon Rag
TTITLE9=Solace
TTITLE10=Magnetic Rag
TTITLE11=Swipesy Cake Walk
TTITLE12=Gladiolus Rag
EXTD=YEAR: 1989
EXTT0=
EXTT1=
EXTT2=
EXTT3=
EXTT4=
EXTT5=
EXTT6=
EXTT7=Probably written by Arthur Marshall
EXTT8=
EXTT9=
EXTT10=
EXTT11=In collaboration with Arthur Marshall
EXTT12=
PLAYORDER=
